  0
SECTION
  2
HEADER
  9
$MEASUREMENT
  70
  1
  9
$INSUNITS
  70
  4
  0
ENDSEC
  0
SECTION
  2
TABLES
  0
TABLE
  2
LTYPE
 70
     1
  0
LTYPE
  2
CONTINUOUS
 70
    64
  3
Ausgezogene Linie
 72
    65
 73
     0
 40
0.0
  0
ENDTAB
  0
TABLE
  2
LAYER
 70
     3
  0
LAYER
  2
Contour
 70
    64
 62
     7
  6
CONTINUOUS
  0
LAYER
  2
Engraving
 70
    64
 62
     7
  6
CONTINUOUS
  0
LAYER
  2
Reference_points
 70
    64
 62
     1
  6
CONTINUOUS
  0
ENDTAB
  0
TABLE
  2
STYLE
 70
     1
  0
STYLE
  2
TXT
 70
    64
 40
0.0
 41
1.0
 50
0.0
 71
     0
 42
3.500000
  3
TXT
  0
ENDTAB
  0
ENDSEC
  0
SECTION
  2
BLOCKS
  0
ENDSEC
  0
SECTION
  2
ENTITIES
  0
LINE
  8
Contour
 62
   7
 39
0.100
  6
CONTINUOUS
 10
19.98000
 20
128.40000
 30
 0
 11
19.98000
 21
0.00000
  0
LINE
  8
Contour
 62
   7
 39
0.100
  6
CONTINUOUS
 10
19.98000
 20
0.00000
 30
 0
 11
0.00000
 21
0.00000
  0
LINE
  8
Contour
 62
   7
 39
0.100
  6
CONTINUOUS
 10
0.00000
 20
0.00000
 30
 0
 11
0.00000
 21
128.40000
  0
LINE
  8
Contour
 62
   7
 39
0.100
  6
CONTINUOUS
 10
0.00000
 20
128.40000
 30
 0
 11
19.98000
 21
128.40000
  0
LINE
  8
Engraving
 62
   7
 39
0.400
  6
CONTINUOUS
 10
3.70949
 20
111.24343
 30
 0
 11
3.70949
 21
110.76809
  0
LINE
  8
Engraving
 62
   7
 39
0.400
  6
CONTINUOUS
 10
3.70949
 20
110.76809
 30
 0
 11
3.76541
 21
110.51645
  0
LINE
  8
Engraving
 62
   7
 39
0.400
  6
CONTINUOUS
 10
3.76541
 20
110.51645
 30
 0
 11
3.90521
 21
110.29276
  0
LINE
  8
Engraving
 62
   7
 39
0.400
  6
CONTINUOUS
 10
3.90521
 20
110.29276
 30
 0
 11
4.10094
 21
110.15296
  0
LINE
  8
Engraving
 62
   7
 39
0.400
  6
CONTINUOUS
 10
4.10094
 20
110.15296
 30
 0
 11
4.38054
 21
110.09704
  0
LINE
  8
Engraving
 62
   7
 39
0.400
  6
CONTINUOUS
 10
4.38054
 20
110.09704
 30
 0
 11
4.71607
 21
110.09704
  0
LINE
  8
Engraving
 62
   7
 39
0.400
  6
CONTINUOUS
 10
4.71607
 20
110.09704
 30
 0
 11
4.91180
 21
110.12500
  0
LINE
  8
Engraving
 62
   7
 39
0.400
  6
CONTINUOUS
 10
4.91180
 20
110.12500
 30
 0
 11
5.16344
 21
110.26480
  0
LINE
  8
Engraving
 62
   7
 39
0.400
  6
CONTINUOUS
 10
5.16344
 20
110.26480
 30
 0
 11
5.33120
 21
110.48849
  0
LINE
  8
Engraving
 62
   7
 39
0.400
  6
CONTINUOUS
 10
5.33120
 20
110.48849
 30
 0
 11
5.38713
 21
110.76809
  0
LINE
  8
Engraving
 62
   7
 39
0.400
  6
CONTINUOUS
 10
5.38713
 20
110.76809
 30
 0
 11
5.38713
 21
110.96382
  0
LINE
  8
Engraving
 62
   7
 39
0.400
  6
CONTINUOUS
 10
5.38713
 20
110.96382
 30
 0
 11
5.33120
 21
111.15954
  0
LINE
  8
Engraving
 62
   7
 39
0.400
  6
CONTINUOUS
 10
5.33120
 20
111.15954
 30
 0
 11
5.21936
 21
111.38323
  0
LINE
  8
Engraving
 62
   7
 39
0.400
  6
CONTINUOUS
 10
5.21936
 20
111.38323
 30
 0
 11
5.10752
 21
111.49507
  0
LINE
  8
Engraving
 62
   7
 39
0.400
  6
CONTINUOUS
 10
5.10752
 20
111.49507
 30
 0
 11
4.93976
 21
111.63487
  0
LINE
  8
Engraving
 62
   7
 39
0.400
  6
CONTINUOUS
 10
4.93976
 20
111.63487
 30
 0
 11
4.12890
 21
112.36185
  0
LINE
  8
Engraving
 62
   7
 39
0.400
  6
CONTINUOUS
 10
4.12890
 20
112.36185
 30
 0
 11
3.98909
 21
112.47369
  0
LINE
  8
Engraving
 62
   7
 39
0.400
  6
CONTINUOUS
 10
3.98909
 20
112.47369
 30
 0
 11
3.84929
 21
112.64146
  0
LINE
  8
Engraving
 62
   7
 39
0.400
  6
CONTINUOUS
 10
3.84929
 20
112.64146
 30
 0
 11
3.79337
 21
112.72534
  0
LINE
  8
Engraving
 62
   7
 39
0.400
  6
CONTINUOUS
 10
3.79337
 20
112.72534
 30
 0
 11
3.76541
 21
112.86514
  0
LINE
  8
Engraving
 62
   7
 39
0.400
  6
CONTINUOUS
 10
3.76541
 20
112.86514
 30
 0
 11
3.76541
 21
113.11679
  0
LINE
  8
Engraving
 62
   7
 39
0.400
  6
CONTINUOUS
 10
3.76541
 20
113.11679
 30
 0
 11
3.84929
 21
113.36843
  0
LINE
  8
Engraving
 62
   7
 39
0.400
  6
CONTINUOUS
 10
3.84929
 20
113.36843
 30
 0
 11
3.96113
 21
113.53620
  0
LINE
  8
Engraving
 62
   7
 39
0.400
  6
CONTINUOUS
 10
3.96113
 20
113.53620
 30
 0
 11
4.12890
 21
113.64804
  0
LINE
  8
Engraving
 62
   7
 39
0.400
  6
CONTINUOUS
 10
4.12890
 20
113.64804
 30
 0
 11
4.40850
 21
113.70396
  0
LINE
  8
Engraving
 62
   7
 39
0.400
  6
CONTINUOUS
 10
4.40850
 20
113.70396
 30
 0
 11
4.68811
 21
113.70396
  0
LINE
  8
Engraving
 62
   7
 39
0.400
  6
CONTINUOUS
 10
4.68811
 20
113.70396
 30
 0
 11
4.85587
 21
113.67600
  0
LINE
  8
Engraving
 62
   7
 39
0.400
  6
CONTINUOUS
 10
4.85587
 20
113.67600
 30
 0
 11
5.05160
 21
113.59212
  0
LINE
  8
Engraving
 62
   7
 39
0.400
  6
CONTINUOUS
 10
5.05160
 20
113.59212
 30
 0
 11
5.19140
 21
113.45231
  0
LINE
  8
Engraving
 62
   7
 39
0.400
  6
CONTINUOUS
 10
5.19140
 20
113.45231
 30
 0
 11
5.30324
 21
113.25659
  0
LINE
  8
Engraving
 62
   7
 39
0.400
  6
CONTINUOUS
 10
5.30324
 20
113.25659
 30
 0
 11
5.33120
 21
113.06087
  0
LINE
  8
Engraving
 62
   7
 39
0.400
  6
CONTINUOUS
 10
5.33120
 20
113.06087
 30
 0
 11
5.33120
 21
112.80922
  0
LINE
  8
Engraving
 62
   7
 39
0.400
  6
CONTINUOUS
 10
7.54048
 20
113.67600
 30
 0
 11
6.08653
 21
113.67600
  0
LINE
  8
Engraving
 62
   7
 39
0.400
  6
CONTINUOUS
 10
6.08653
 20
113.67600
 30
 0
 11
6.08653
 21
110.12500
  0
LINE
  8
Engraving
 62
   7
 39
0.400
  6
CONTINUOUS
 10
6.08653
 20
110.12500
 30
 0
 11
7.56844
 21
110.12500
  0
LINE
  8
Engraving
 62
   7
 39
0.400
  6
CONTINUOUS
 10
7.48456
 20
111.94244
 30
 0
 11
6.08653
 21
111.94244
  0
LINE
  8
Engraving
 62
   7
 39
0.400
  6
CONTINUOUS
 10
8.26753
 20
111.83060
 30
 0
 11
8.26753
 21
110.76809
  0
LINE
  8
Engraving
 62
   7
 39
0.400
  6
CONTINUOUS
 10
8.26753
 20
110.76809
 30
 0
 11
8.35141
 21
110.46053
  0
LINE
  8
Engraving
 62
   7
 39
0.400
  6
CONTINUOUS
 10
8.35141
 20
110.46053
 30
 0
 11
8.46325
 21
110.29276
  0
LINE
  8
Engraving
 62
   7
 39
0.400
  6
CONTINUOUS
 10
8.46325
 20
110.29276
 30
 0
 11
8.65898
 21
110.15296
  0
LINE
  8
Engraving
 62
   7
 39
0.400
  6
CONTINUOUS
 10
8.65898
 20
110.15296
 30
 0
 11
8.93858
 21
110.09704
  0
LINE
  8
Engraving
 62
   7
 39
0.400
  6
CONTINUOUS
 10
8.93858
 20
110.09704
 30
 0
 11
9.41391
 21
110.09704
  0
LINE
  8
Engraving
 62
   7
 39
0.400
  6
CONTINUOUS
 10
9.41391
 20
110.09704
 30
 0
 11
9.66556
 21
110.12500
  0
LINE
  8
Engraving
 62
   7
 39
0.400
  6
CONTINUOUS
 10
9.66556
 20
110.12500
 30
 0
 11
10.36457
 21
110.12500
  0
LINE
  8
Engraving
 62
   7
 39
0.400
  6
CONTINUOUS
 10
10.36457
 20
110.12500
 30
 0
 11
9.66556
 21
110.12500
  0
LINE
  8
Engraving
 62
   7
 39
0.400
  6
CONTINUOUS
 10
9.66556
 20
110.12500
 30
 0
 11
9.86128
 21
110.26480
  0
LINE
  8
Engraving
 62
   7
 39
0.400
  6
CONTINUOUS
 10
9.86128
 20
110.26480
 30
 0
 11
10.02905
 21
110.51645
  0
LINE
  8
Engraving
 62
   7
 39
0.400
  6
CONTINUOUS
 10
10.02905
 20
110.51645
 30
 0
 11
10.08497
 21
110.76809
  0
LINE
  8
Engraving
 62
   7
 39
0.400
  6
CONTINUOUS
 10
10.08497
 20
110.76809
 30
 0
 11
10.08497
 21
113.03291
  0
LINE
  8
Engraving
 62
   7
 39
0.400
  6
CONTINUOUS
 10
10.08497
 20
113.03291
 30
 0
 11
10.02905
 21
113.31251
  0
LINE
  8
Engraving
 62
   7
 39
0.400
  6
CONTINUOUS
 10
10.02905
 20
113.31251
 30
 0
 11
9.91720
 21
113.48028
  0
LINE
  8
Engraving
 62
   7
 39
0.400
  6
CONTINUOUS
 10
9.91720
 20
113.48028
 30
 0
 11
9.69352
 21
113.64804
  0
LINE
  8
Engraving
 62
   7
 39
0.400
  6
CONTINUOUS
 10
9.69352
 20
113.64804
 30
 0
 11
9.41391
 21
113.70396
  0
LINE
  8
Engraving
 62
   7
 39
0.400
  6
CONTINUOUS
 10
9.41391
 20
113.70396
 30
 0
 11
8.93858
 21
113.70396
  0
LINE
  8
Engraving
 62
   7
 39
0.400
  6
CONTINUOUS
 10
8.93858
 20
113.70396
 30
 0
 11
8.68694
 21
113.64804
  0
LINE
  8
Engraving
 62
   7
 39
0.400
  6
CONTINUOUS
 10
8.68694
 20
113.64804
 30
 0
 11
8.49121
 21
113.53620
  0
LINE
  8
Engraving
 62
   7
 39
0.400
  6
CONTINUOUS
 10
8.49121
 20
113.53620
 30
 0
 11
8.35141
 21
113.36843
  0
LINE
  8
Engraving
 62
   7
 39
0.400
  6
CONTINUOUS
 10
8.35141
 20
113.36843
 30
 0
 11
8.26753
 21
113.03291
  0
LINE
  8
Engraving
 62
   7
 39
0.400
  6
CONTINUOUS
 10
8.26753
 20
113.03291
 30
 0
 11
8.26753
 21
111.83060
  0
LINE
  8
Engraving
 62
   7
 39
0.400
  6
CONTINUOUS
 10
12.34972
 20
110.12600
 30
 0
 11
12.34972
 21
113.67700
  0
LINE
  8
Engraving
 62
   7
 39
0.400
  6
CONTINUOUS
 10
12.34972
 20
113.67700
 30
 0
 11
12.20991
 21
113.67700
  0
LINE
  8
Engraving
 62
   7
 39
0.400
  6
CONTINUOUS
 10
12.20991
 20
113.67700
 30
 0
 11
11.06353
 21
111.18850
  0
LINE
  8
Engraving
 62
   7
 39
0.400
  6
CONTINUOUS
 10
11.06353
 20
111.18850
 30
 0
 11
12.88097
 21
111.18850
  0
LINE
  8
Engraving
 62
   7
 39
0.400
  6
CONTINUOUS
 10
13.57953
 20
110.12700
 30
 0
 11
13.94302
 21
110.12700
  0
LINE
  8
Engraving
 62
   7
 39
0.400
  6
CONTINUOUS
 10
13.94302
 20
110.12700
 30
 0
 11
13.94302
 21
110.49049
  0
LINE
  8
Engraving
 62
   7
 39
0.400
  6
CONTINUOUS
 10
13.94302
 20
110.49049
 30
 0
 11
13.57953
 21
110.49049
  0
LINE
  8
Engraving
 62
   7
 39
0.400
  6
CONTINUOUS
 10
13.57953
 20
110.49049
 30
 0
 11
13.57953
 21
110.12700
  0
ARC
  8
Engraving
 62
   7
 39
0.400
  6
CONTINUOUS
 10
15.47624
 20
112.91330
 30
 0
 40
0.81549
 50
103.59010
 51
197.25422
  0
ARC
  8
Engraving
 62
   7
 39
0.400
  6
CONTINUOUS
 10
15.50255
 20
112.97144
 30
 0
 40
0.76617
 50
6.85332
 51
106.52541
  0
ARC
  8
Engraving
 62
   7
 39
0.400
  6
CONTINUOUS
 10
14.56948
 20
112.81168
 30
 0
 40
1.71229
 50
-32.62504
 51
8.43552
  0
ARC
  8
Engraving
 62
   7
 39
0.400
  6
CONTINUOUS
 10
12.50752
 20
113.99288
 30
 0
 40
4.08741
 50
312.79903
 51
329.01325
  0
LINE
  8
Engraving
 62
   7
 39
0.400
  6
CONTINUOUS
 10
15.28462
 20
110.99378
 30
 0
 11
14.64153
 21
110.32272
  0
LINE
  8
Engraving
 62
   7
 39
0.400
  6
CONTINUOUS
 10
14.64153
 20
110.32272
 30
 0
 11
14.64153
 21
110.12700
  0
LINE
  8
Engraving
 62
   7
 39
0.400
  6
CONTINUOUS
 10
14.64153
 20
110.12700
 30
 0
 11
16.29120
 21
110.12700
  0
LINE
  8
Engraving
 62
   7
 39
0.400
  6
CONTINUOUS
 10
16.29120
 20
110.12700
 30
 0
 11
14.64153
 21
110.12700
  0
LINE
  8
Engraving
 62
   7
 39
0.400
  6
CONTINUOUS
 10
2.46923
 20
31.36506
 30
 0
 11
2.46923
 21
31.54669
  0
LINE
  8
Engraving
 62
   7
 39
0.400
  6
CONTINUOUS
 10
2.46923
 20
31.54669
 30
 0
 11
2.57013
 21
31.70813
  0
LINE
  8
Engraving
 62
   7
 39
0.400
  6
CONTINUOUS
 10
2.57013
 20
31.70813
 30
 0
 11
2.71140
 21
31.80904
  0
LINE
  8
Engraving
 62
   7
 39
0.400
  6
CONTINUOUS
 10
2.71140
 20
31.80904
 30
 0
 11
2.85267
 21
31.82922
  0
LINE
  8
Engraving
 62
   7
 39
0.400
  6
CONTINUOUS
 10
2.85267
 20
31.82922
 30
 0
 11
3.47828
 21
31.82922
  0
LINE
  8
Engraving
 62
   7
 39
0.400
  6
CONTINUOUS
 10
3.47828
 20
31.82922
 30
 0
 11
3.61955
 21
31.84940
  0
LINE
  8
Engraving
 62
   7
 39
0.400
  6
CONTINUOUS
 10
3.61955
 20
31.84940
 30
 0
 11
3.78100
 21
31.86958
  0
LINE
  8
Engraving
 62
   7
 39
0.400
  6
CONTINUOUS
 10
3.78100
 20
30.61835
 30
 0
 11
1.21800
 21
30.61835
  0
LINE
  8
Engraving
 62
   7
 39
0.400
  6
CONTINUOUS
 10
1.21800
 20
30.61835
 30
 0
 11
1.21800
 21
31.34487
  0
LINE
  8
Engraving
 62
   7
 39
0.400
  6
CONTINUOUS
 10
1.21800
 20
31.34487
 30
 0
 11
1.27854
 21
31.56687
  0
LINE
  8
Engraving
 62
   7
 39
0.400
  6
CONTINUOUS
 10
1.27854
 20
31.56687
 30
 0
 11
1.37945
 21
31.70813
  0
LINE
  8
Engraving
 62
   7
 39
0.400
  6
CONTINUOUS
 10
1.37945
 20
31.70813
 30
 0
 11
1.52072
 21
31.80904
  0
LINE
  8
Engraving
 62
   7
 39
0.400
  6
CONTINUOUS
 10
1.52072
 20
31.80904
 30
 0
 11
1.70235
 21
31.82922
  0
LINE
  8
Engraving
 62
   7
 39
0.400
  6
CONTINUOUS
 10
1.70235
 20
31.82922
 30
 0
 11
1.98488
 21
31.82922
  0
LINE
  8
Engraving
 62
   7
 39
0.400
  6
CONTINUOUS
 10
1.98488
 20
31.82922
 30
 0
 11
2.14633
 21
31.80904
  0
LINE
  8
Engraving
 62
   7
 39
0.400
  6
CONTINUOUS
 10
2.14633
 20
31.80904
 30
 0
 11
2.30778
 21
31.70813
  0
LINE
  8
Engraving
 62
   7
 39
0.400
  6
CONTINUOUS
 10
2.30778
 20
31.70813
 30
 0
 11
2.40869
 21
31.58705
  0
LINE
  8
Engraving
 62
   7
 39
0.400
  6
CONTINUOUS
 10
2.40869
 20
31.58705
 30
 0
 11
2.46923
 21
31.36506
  0
LINE
  8
Engraving
 62
   7
 39
0.400
  6
CONTINUOUS
 10
2.46923
 20
31.36506
 30
 0
 11
2.46923
 21
30.61835
  0
LINE
  8
Engraving
 62
   7
 39
0.400
  6
CONTINUOUS
 10
2.97376
 20
32.39435
 30
 0
 11
3.31683
 21
32.39435
  0
LINE
  8
Engraving
 62
   7
 39
0.400
  6
CONTINUOUS
 10
3.31683
 20
32.39435
 30
 0
 11
3.49846
 21
32.43472
  0
LINE
  8
Engraving
 62
   7
 39
0.400
  6
CONTINUOUS
 10
3.49846
 20
32.43472
 30
 0
 11
3.65991
 21
32.53562
  0
LINE
  8
Engraving
 62
   7
 39
0.400
  6
CONTINUOUS
 10
3.65991
 20
32.53562
 30
 0
 11
3.76082
 21
32.67689
  0
LINE
  8
Engraving
 62
   7
 39
0.400
  6
CONTINUOUS
 10
3.76082
 20
32.67689
 30
 0
 11
3.80118
 21
32.87870
  0
LINE
  8
Engraving
 62
   7
 39
0.400
  6
CONTINUOUS
 10
3.80118
 20
32.87870
 30
 0
 11
3.80118
 21
33.12087
  0
LINE
  8
Engraving
 62
   7
 39
0.400
  6
CONTINUOUS
 10
3.80118
 20
33.12087
 30
 0
 11
3.78100
 21
33.26214
  0
LINE
  8
Engraving
 62
   7
 39
0.400
  6
CONTINUOUS
 10
3.78100
 20
33.26214
 30
 0
 11
3.68009
 21
33.44377
  0
LINE
  8
Engraving
 62
   7
 39
0.400
  6
CONTINUOUS
 10
3.68009
 20
33.44377
 30
 0
 11
3.51865
 21
33.56486
  0
LINE
  8
Engraving
 62
   7
 39
0.400
  6
CONTINUOUS
 10
3.51865
 20
33.56486
 30
 0
 11
3.31683
 21
33.60522
  0
LINE
  8
Engraving
 62
   7
 39
0.400
  6
CONTINUOUS
 10
3.31683
 20
33.60522
 30
 0
 11
3.17557
 21
33.60522
  0
LINE
  8
Engraving
 62
   7
 39
0.400
  6
CONTINUOUS
 10
3.17557
 20
33.60522
 30
 0
 11
3.03430
 21
33.56486
  0
LINE
  8
Engraving
 62
   7
 39
0.400
  6
CONTINUOUS
 10
3.03430
 20
33.56486
 30
 0
 11
2.87285
 21
33.48413
  0
LINE
  8
Engraving
 62
   7
 39
0.400
  6
CONTINUOUS
 10
2.87285
 20
33.48413
 30
 0
 11
2.79213
 21
33.40341
  0
LINE
  8
Engraving
 62
   7
 39
0.400
  6
CONTINUOUS
 10
2.79213
 20
33.40341
 30
 0
 11
2.69122
 21
33.28232
  0
LINE
  8
Engraving
 62
   7
 39
0.400
  6
CONTINUOUS
 10
2.69122
 20
33.28232
 30
 0
 11
2.16651
 21
32.69707
  0
LINE
  8
Engraving
 62
   7
 39
0.400
  6
CONTINUOUS
 10
2.16651
 20
32.69707
 30
 0
 11
2.08579
 21
32.59617
  0
LINE
  8
Engraving
 62
   7
 39
0.400
  6
CONTINUOUS
 10
2.08579
 20
32.59617
 30
 0
 11
1.96470
 21
32.49526
  0
LINE
  8
Engraving
 62
   7
 39
0.400
  6
CONTINUOUS
 10
1.96470
 20
32.49526
 30
 0
 11
1.90416
 21
32.45490
  0
LINE
  8
Engraving
 62
   7
 39
0.400
  6
CONTINUOUS
 10
1.90416
 20
32.45490
 30
 0
 11
1.80325
 21
32.43472
  0
LINE
  8
Engraving
 62
   7
 39
0.400
  6
CONTINUOUS
 10
1.80325
 20
32.43472
 30
 0
 11
1.62162
 21
32.43472
  0
LINE
  8
Engraving
 62
   7
 39
0.400
  6
CONTINUOUS
 10
1.62162
 20
32.43472
 30
 0
 11
1.43999
 21
32.49526
  0
LINE
  8
Engraving
 62
   7
 39
0.400
  6
CONTINUOUS
 10
1.43999
 20
32.49526
 30
 0
 11
1.31891
 21
32.57598
  0
LINE
  8
Engraving
 62
   7
 39
0.400
  6
CONTINUOUS
 10
1.31891
 20
32.57598
 30
 0
 11
1.23818
 21
32.69707
  0
LINE
  8
Engraving
 62
   7
 39
0.400
  6
CONTINUOUS
 10
1.23818
 20
32.69707
 30
 0
 11
1.19782
 21
32.89888
  0
LINE
  8
Engraving
 62
   7
 39
0.400
  6
CONTINUOUS
 10
1.19782
 20
32.89888
 30
 0
 11
1.19782
 21
33.10069
  0
LINE
  8
Engraving
 62
   7
 39
0.400
  6
CONTINUOUS
 10
1.19782
 20
33.10069
 30
 0
 11
1.21800
 21
33.22178
  0
LINE
  8
Engraving
 62
   7
 39
0.400
  6
CONTINUOUS
 10
1.21800
 20
33.22178
 30
 0
 11
1.27854
 21
33.36305
  0
LINE
  8
Engraving
 62
   7
 39
0.400
  6
CONTINUOUS
 10
1.27854
 20
33.36305
 30
 0
 11
1.37945
 21
33.46395
  0
LINE
  8
Engraving
 62
   7
 39
0.400
  6
CONTINUOUS
 10
1.37945
 20
33.46395
 30
 0
 11
1.52072
 21
33.54468
  0
LINE
  8
Engraving
 62
   7
 39
0.400
  6
CONTINUOUS
 10
1.52072
 20
33.54468
 30
 0
 11
1.66198
 21
33.56486
  0
LINE
  8
Engraving
 62
   7
 39
0.400
  6
CONTINUOUS
 10
1.66198
 20
33.56486
 30
 0
 11
1.84361
 21
33.56486
  0
LINE
  8
Engraving
 62
   7
 39
0.400
  6
CONTINUOUS
 10
3.78100
 20
34.79533
 30
 0
 11
1.21800
 21
34.79533
  0
LINE
  8
Engraving
 62
   7
 39
0.400
  6
CONTINUOUS
 10
1.21800
 20
34.10917
 30
 0
 11
1.21800
 21
35.50167
  0
LINE
  8
Engraving
 62
   7
 39
0.400
  6
CONTINUOUS
 10
2.48941
 20
16.58817
 30
 0
 11
3.31683
 21
16.58817
  0
LINE
  8
Engraving
 62
   7
 39
0.400
  6
CONTINUOUS
 10
3.31683
 20
16.58817
 30
 0
 11
3.51865
 21
16.62854
  0
LINE
  8
Engraving
 62
   7
 39
0.400
  6
CONTINUOUS
 10
3.51865
 20
16.62854
 30
 0
 11
3.63973
 21
16.70926
  0
LINE
  8
Engraving
 62
   7
 39
0.400
  6
CONTINUOUS
 10
3.63973
 20
16.70926
 30
 0
 11
3.72046
 21
16.81017
  0
LINE
  8
Engraving
 62
   7
 39
0.400
  6
CONTINUOUS
 10
3.72046
 20
16.81017
 30
 0
 11
3.80118
 21
16.95143
  0
LINE
  8
Engraving
 62
   7
 39
0.400
  6
CONTINUOUS
 10
3.80118
 20
16.95143
 30
 0
 11
3.80118
 21
17.07252
  0
LINE
  8
Engraving
 62
   7
 39
0.400
  6
CONTINUOUS
 10
3.80118
 20
17.07252
 30
 0
 11
3.80118
 21
17.39542
  0
LINE
  8
Engraving
 62
   7
 39
0.400
  6
CONTINUOUS
 10
3.80118
 20
17.39542
 30
 0
 11
3.78100
 21
17.57705
  0
LINE
  8
Engraving
 62
   7
 39
0.400
  6
CONTINUOUS
 10
3.78100
 20
17.57705
 30
 0
 11
3.70028
 21
17.71831
  0
LINE
  8
Engraving
 62
   7
 39
0.400
  6
CONTINUOUS
 10
3.70028
 20
17.71831
 30
 0
 11
3.53883
 21
17.83940
  0
LINE
  8
Engraving
 62
   7
 39
0.400
  6
CONTINUOUS
 10
3.53883
 20
17.83940
 30
 0
 11
3.31683
 21
17.89994
  0
LINE
  8
Engraving
 62
   7
 39
0.400
  6
CONTINUOUS
 10
3.31683
 20
17.89994
 30
 0
 11
1.68217
 21
17.89994
  0
LINE
  8
Engraving
 62
   7
 39
0.400
  6
CONTINUOUS
 10
1.68217
 20
17.89994
 30
 0
 11
1.52072
 21
17.85958
  0
LINE
  8
Engraving
 62
   7
 39
0.400
  6
CONTINUOUS
 10
1.52072
 20
17.85958
 30
 0
 11
1.35927
 21
17.77886
  0
LINE
  8
Engraving
 62
   7
 39
0.400
  6
CONTINUOUS
 10
1.35927
 20
17.77886
 30
 0
 11
1.27854
 21
17.67795
  0
LINE
  8
Engraving
 62
   7
 39
0.400
  6
CONTINUOUS
 10
1.27854
 20
17.67795
 30
 0
 11
1.21800
 21
17.57705
  0
LINE
  8
Engraving
 62
   7
 39
0.400
  6
CONTINUOUS
 10
1.21800
 20
17.57705
 30
 0
 11
1.19782
 21
17.39542
  0
LINE
  8
Engraving
 62
   7
 39
0.400
  6
CONTINUOUS
 10
1.19782
 20
17.39542
 30
 0
 11
1.19782
 21
17.07252
  0
LINE
  8
Engraving
 62
   7
 39
0.400
  6
CONTINUOUS
 10
1.19782
 20
17.07252
 30
 0
 11
1.21800
 21
16.91107
  0
LINE
  8
Engraving
 62
   7
 39
0.400
  6
CONTINUOUS
 10
1.21800
 20
16.91107
 30
 0
 11
1.29872
 21
16.76980
  0
LINE
  8
Engraving
 62
   7
 39
0.400
  6
CONTINUOUS
 10
1.29872
 20
16.76980
 30
 0
 11
1.39963
 21
16.66890
  0
LINE
  8
Engraving
 62
   7
 39
0.400
  6
CONTINUOUS
 10
1.39963
 20
16.66890
 30
 0
 11
1.52072
 21
16.60835
  0
LINE
  8
Engraving
 62
   7
 39
0.400
  6
CONTINUOUS
 10
1.52072
 20
16.60835
 30
 0
 11
1.68217
 21
16.58817
  0
LINE
  8
Engraving
 62
   7
 39
0.400
  6
CONTINUOUS
 10
1.68217
 20
16.58817
 30
 0
 11
2.48941
 21
16.58817
  0
LINE
  8
Engraving
 62
   7
 39
0.400
  6
CONTINUOUS
 10
1.21800
 20
18.42535
 30
 0
 11
3.29665
 21
18.42535
  0
LINE
  8
Engraving
 62
   7
 39
0.400
  6
CONTINUOUS
 10
3.29665
 20
18.42535
 30
 0
 11
3.53883
 21
18.48590
  0
LINE
  8
Engraving
 62
   7
 39
0.400
  6
CONTINUOUS
 10
3.53883
 20
18.48590
 30
 0
 11
3.65991
 21
18.56662
  0
LINE
  8
Engraving
 62
   7
 39
0.400
  6
CONTINUOUS
 10
3.65991
 20
18.56662
 30
 0
 11
3.76082
 21
18.72807
  0
LINE
  8
Engraving
 62
   7
 39
0.400
  6
CONTINUOUS
 10
3.76082
 20
18.72807
 30
 0
 11
3.80118
 21
18.92988
  0
LINE
  8
Engraving
 62
   7
 39
0.400
  6
CONTINUOUS
 10
3.80118
 20
18.92988
 30
 0
 11
3.80118
 21
19.19224
  0
LINE
  8
Engraving
 62
   7
 39
0.400
  6
CONTINUOUS
 10
3.80118
 20
19.19224
 30
 0
 11
3.78100
 21
19.35369
  0
LINE
  8
Engraving
 62
   7
 39
0.400
  6
CONTINUOUS
 10
3.78100
 20
19.35369
 30
 0
 11
3.68009
 21
19.53531
  0
LINE
  8
Engraving
 62
   7
 39
0.400
  6
CONTINUOUS
 10
3.68009
 20
19.53531
 30
 0
 11
3.49846
 21
19.67658
  0
LINE
  8
Engraving
 62
   7
 39
0.400
  6
CONTINUOUS
 10
3.49846
 20
19.67658
 30
 0
 11
3.29665
 21
19.71694
  0
LINE
  8
Engraving
 62
   7
 39
0.400
  6
CONTINUOUS
 10
3.29665
 20
19.71694
 30
 0
 11
1.21800
 21
19.71694
  0
LINE
  8
Engraving
 62
   7
 39
0.400
  6
CONTINUOUS
 10
3.78000
 20
20.90733
 30
 0
 11
1.21700
 21
20.90733
  0
LINE
  8
Engraving
 62
   7
 39
0.400
  6
CONTINUOUS
 10
1.21700
 20
20.22117
 30
 0
 11
1.21700
 21
21.61367
  0
LINE
  8
Engraving
 62
   7
 39
0.400
  6
CONTINUOUS
 10
1.96470
 20
94.20068
 30
 0
 11
1.66198
 21
94.20068
  0
LINE
  8
Engraving
 62
   7
 39
0.400
  6
CONTINUOUS
 10
1.66198
 20
94.20068
 30
 0
 11
1.52072
 21
94.18050
  0
LINE
  8
Engraving
 62
   7
 39
0.400
  6
CONTINUOUS
 10
1.52072
 20
94.18050
 30
 0
 11
1.37945
 21
94.11995
  0
LINE
  8
Engraving
 62
   7
 39
0.400
  6
CONTINUOUS
 10
1.37945
 20
94.11995
 30
 0
 11
1.29872
 21
94.01905
  0
LINE
  8
Engraving
 62
   7
 39
0.400
  6
CONTINUOUS
 10
1.29872
 20
94.01905
 30
 0
 11
1.23818
 21
93.91814
  0
LINE
  8
Engraving
 62
   7
 39
0.400
  6
CONTINUOUS
 10
1.23818
 20
93.91814
 30
 0
 11
1.19782
 21
93.79706
  0
LINE
  8
Engraving
 62
   7
 39
0.400
  6
CONTINUOUS
 10
1.19782
 20
93.79706
 30
 0
 11
1.19782
 21
93.51452
  0
LINE
  8
Engraving
 62
   7
 39
0.400
  6
CONTINUOUS
 10
1.19782
 20
93.51452
 30
 0
 11
1.21800
 21
93.33289
  0
LINE
  8
Engraving
 62
   7
 39
0.400
  6
CONTINUOUS
 10
1.21800
 20
93.33289
 30
 0
 11
1.31891
 21
93.19162
  0
LINE
  8
Engraving
 62
   7
 39
0.400
  6
CONTINUOUS
 10
1.31891
 20
93.19162
 30
 0
 11
1.43999
 21
93.11090
  0
LINE
  8
Engraving
 62
   7
 39
0.400
  6
CONTINUOUS
 10
1.43999
 20
93.11090
 30
 0
 11
1.60144
 21
93.05035
  0
LINE
  8
Engraving
 62
   7
 39
0.400
  6
CONTINUOUS
 10
1.60144
 20
93.05035
 30
 0
 11
3.31683
 21
93.05035
  0
LINE
  8
Engraving
 62
   7
 39
0.400
  6
CONTINUOUS
 10
3.31683
 20
93.05035
 30
 0
 11
3.49846
 21
93.09072
  0
LINE
  8
Engraving
 62
   7
 39
0.400
  6
CONTINUOUS
 10
3.49846
 20
93.09072
 30
 0
 11
3.61955
 21
93.15126
  0
LINE
  8
Engraving
 62
   7
 39
0.400
  6
CONTINUOUS
 10
3.61955
 20
93.15126
 30
 0
 11
3.72046
 21
93.27235
  0
LINE
  8
Engraving
 62
   7
 39
0.400
  6
CONTINUOUS
 10
3.72046
 20
93.27235
 30
 0
 11
3.78100
 21
93.37325
  0
LINE
  8
Engraving
 62
   7
 39
0.400
  6
CONTINUOUS
 10
3.78100
 20
93.37325
 30
 0
 11
3.80118
 21
93.53470
  0
LINE
  8
Engraving
 62
   7
 39
0.400
  6
CONTINUOUS
 10
3.80118
 20
93.53470
 30
 0
 11
3.80118
 21
93.73651
  0
LINE
  8
Engraving
 62
   7
 39
0.400
  6
CONTINUOUS
 10
3.80118
 20
93.73651
 30
 0
 11
3.78100
 21
93.87778
  0
LINE
  8
Engraving
 62
   7
 39
0.400
  6
CONTINUOUS
 10
3.78100
 20
93.87778
 30
 0
 11
3.70028
 21
94.03923
  0
LINE
  8
Engraving
 62
   7
 39
0.400
  6
CONTINUOUS
 10
3.70028
 20
94.03923
 30
 0
 11
3.59937
 21
94.14013
  0
LINE
  8
Engraving
 62
   7
 39
0.400
  6
CONTINUOUS
 10
3.59937
 20
94.14013
 30
 0
 11
3.43792
 21
94.22086
  0
LINE
  8
Engraving
 62
   7
 39
0.400
  6
CONTINUOUS
 10
3.43792
 20
94.22086
 30
 0
 11
3.31683
 21
94.22086
  0
LINE
  8
Engraving
 62
   7
 39
0.400
  6
CONTINUOUS
 10
3.31683
 20
94.22086
 30
 0
 11
3.07466
 21
94.22086
  0
LINE
  8
Engraving
 62
   7
 39
0.400
  6
CONTINUOUS
 10
1.21800
 20
94.74635
 30
 0
 11
3.78100
 21
94.74635
  0
LINE
  8
Engraving
 62
   7
 39
0.400
  6
CONTINUOUS
 10
3.78100
 20
94.74635
 30
 0
 11
3.78100
 21
95.75541
  0
LINE
  8
Engraving
 62
   7
 39
0.400
  6
CONTINUOUS
 10
1.21800
 20
96.27935
 30
 0
 11
3.78100
 21
96.27935
  0
LINE
  8
Engraving
 62
   7
 39
0.400
  6
CONTINUOUS
 10
1.21800
 20
97.53058
 30
 0
 11
2.38850
 21
96.27935
  0
LINE
  8
Engraving
 62
   7
 39
0.400
  6
CONTINUOUS
 10
2.38850
 20
96.27935
 30
 0
 11
3.78100
 21
97.57094
  0
LINE
  8
Engraving
 62
   7
 39
0.400
  6
CONTINUOUS
 10
2.23835
 20
84.01747
 30
 0
 11
2.50071
 21
84.19910
  0
LINE
  8
Engraving
 62
   7
 39
0.400
  6
CONTINUOUS
 10
2.50071
 20
84.19910
 30
 0
 11
2.76306
 21
84.52200
  0
LINE
  8
Engraving
 62
   7
 39
0.400
  6
CONTINUOUS
 10
2.76306
 20
84.52200
 30
 0
 11
2.76306
 21
81.95900
  0
ARC
  8
Engraving
 62
   7
 39
0.400
  6
CONTINUOUS
 10
2.50764
 20
71.27006
 30
 0
 40
0.58860
 50
103.59010
 51
197.25422
  0
ARC
  8
Engraving
 62
   7
 39
0.400
  6
CONTINUOUS
 10
2.52663
 20
71.31203
 30
 0
 40
0.55300
 50
6.85332
 51
106.52541
  0
ARC
  8
Engraving
 62
   7
 39
0.400
  6
CONTINUOUS
 10
1.85317
 20
71.19672
 30
 0
 40
1.23587
 50
-32.62504
 51
8.43552
  0
ARC
  8
Engraving
 62
   7
 39
0.400
  6
CONTINUOUS
 10
0.36491
 20
72.04927
 30
 0
 40
2.95016
 50
312.79903
 51
329.01325
  0
LINE
  8
Engraving
 62
   7
 39
0.400
  6
CONTINUOUS
 10
2.36934
 20
69.88461
 30
 0
 11
1.90517
 21
69.40027
  0
LINE
  8
Engraving
 62
   7
 39
0.400
  6
CONTINUOUS
 10
1.90517
 20
69.40027
 30
 0
 11
1.90517
 21
69.25900
  0
LINE
  8
Engraving
 62
   7
 39
0.400
  6
CONTINUOUS
 10
1.90517
 20
69.25900
 30
 0
 11
3.09586
 21
69.25900
  0
LINE
  8
Engraving
 62
   7
 39
0.400
  6
CONTINUOUS
 10
3.09586
 20
69.25900
 30
 0
 11
1.90517
 21
69.25900
  0
LINE
  8
Engraving
 62
   7
 39
0.400
  6
CONTINUOUS
 10
1.92517
 20
57.30570
 30
 0
 11
1.92517
 21
57.06353
  0
LINE
  8
Engraving
 62
   7
 39
0.400
  6
CONTINUOUS
 10
1.92517
 20
57.06353
 30
 0
 11
1.96554
 21
56.86172
  0
LINE
  8
Engraving
 62
   7
 39
0.400
  6
CONTINUOUS
 10
1.96554
 20
56.86172
 30
 0
 11
2.06644
 21
56.72045
  0
LINE
  8
Engraving
 62
   7
 39
0.400
  6
CONTINUOUS
 10
2.06644
 20
56.72045
 30
 0
 11
2.18753
 21
56.61954
  0
LINE
  8
Engraving
 62
   7
 39
0.400
  6
CONTINUOUS
 10
2.18753
 20
56.61954
 30
 0
 11
2.38934
 21
56.55900
  0
LINE
  8
Engraving
 62
   7
 39
0.400
  6
CONTINUOUS
 10
2.38934
 20
56.55900
 30
 0
 11
2.49024
 21
56.53882
  0
LINE
  8
Engraving
 62
   7
 39
0.400
  6
CONTINUOUS
 10
2.49024
 20
56.53882
 30
 0
 11
2.67187
 21
56.55900
  0
LINE
  8
Engraving
 62
   7
 39
0.400
  6
CONTINUOUS
 10
2.67187
 20
56.55900
 30
 0
 11
2.81314
 21
56.61954
  0
LINE
  8
Engraving
 62
   7
 39
0.400
  6
CONTINUOUS
 10
2.81314
 20
56.61954
 30
 0
 11
2.93423
 21
56.72045
  0
LINE
  8
Engraving
 62
   7
 39
0.400
  6
CONTINUOUS
 10
2.93423
 20
56.72045
 30
 0
 11
3.03513
 21
56.86172
  0
LINE
  8
Engraving
 62
   7
 39
0.400
  6
CONTINUOUS
 10
3.03513
 20
56.86172
 30
 0
 11
3.07550
 21
57.06353
  0
LINE
  8
Engraving
 62
   7
 39
0.400
  6
CONTINUOUS
 10
3.07550
 20
57.06353
 30
 0
 11
3.07550
 21
57.52769
  0
LINE
  8
Engraving
 62
   7
 39
0.400
  6
CONTINUOUS
 10
3.07550
 20
57.52769
 30
 0
 11
3.03513
 21
57.70932
  0
LINE
  8
Engraving
 62
   7
 39
0.400
  6
CONTINUOUS
 10
3.03513
 20
57.70932
 30
 0
 11
2.93423
 21
57.85059
  0
LINE
  8
Engraving
 62
   7
 39
0.400
  6
CONTINUOUS
 10
2.93423
 20
57.85059
 30
 0
 11
2.75260
 21
57.93131
  0
LINE
  8
Engraving
 62
   7
 39
0.400
  6
CONTINUOUS
 10
2.75260
 20
57.93131
 30
 0
 11
2.26825
 21
57.93131
  0
LINE
  8
Engraving
 62
   7
 39
0.400
  6
CONTINUOUS
 10
2.26825
 20
57.93131
 30
 0
 11
2.75260
 21
57.93131
  0
LINE
  8
Engraving
 62
   7
 39
0.400
  6
CONTINUOUS
 10
2.75260
 20
57.93131
 30
 0
 11
2.91405
 21
58.05240
  0
LINE
  8
Engraving
 62
   7
 39
0.400
  6
CONTINUOUS
 10
2.91405
 20
58.05240
 30
 0
 11
3.01495
 21
58.15331
  0
LINE
  8
Engraving
 62
   7
 39
0.400
  6
CONTINUOUS
 10
3.01495
 20
58.15331
 30
 0
 11
3.03513
 21
58.29457
  0
LINE
  8
Engraving
 62
   7
 39
0.400
  6
CONTINUOUS
 10
3.03513
 20
58.29457
 30
 0
 11
3.03513
 21
58.67802
  0
LINE
  8
Engraving
 62
   7
 39
0.400
  6
CONTINUOUS
 10
3.03513
 20
58.67802
 30
 0
 11
3.01495
 21
58.83946
  0
LINE
  8
Engraving
 62
   7
 39
0.400
  6
CONTINUOUS
 10
3.01495
 20
58.83946
 30
 0
 11
2.93423
 21
58.98073
  0
LINE
  8
Engraving
 62
   7
 39
0.400
  6
CONTINUOUS
 10
2.93423
 20
58.98073
 30
 0
 11
2.81314
 21
59.10182
  0
LINE
  8
Engraving
 62
   7
 39
0.400
  6
CONTINUOUS
 10
2.81314
 20
59.10182
 30
 0
 11
2.67187
 21
59.14218
  0
LINE
  8
Engraving
 62
   7
 39
0.400
  6
CONTINUOUS
 10
2.67187
 20
59.14218
 30
 0
 11
2.55079
 21
59.16236
  0
LINE
  8
Engraving
 62
   7
 39
0.400
  6
CONTINUOUS
 10
2.55079
 20
59.16236
 30
 0
 11
2.44988
 21
59.16236
  0
LINE
  8
Engraving
 62
   7
 39
0.400
  6
CONTINUOUS
 10
2.44988
 20
59.16236
 30
 0
 11
2.28843
 21
59.14218
  0
LINE
  8
Engraving
 62
   7
 39
0.400
  6
CONTINUOUS
 10
2.28843
 20
59.14218
 30
 0
 11
2.14717
 21
59.06146
  0
LINE
  8
Engraving
 62
   7
 39
0.400
  6
CONTINUOUS
 10
2.14717
 20
59.06146
 30
 0
 11
2.04626
 21
58.96055
  0
LINE
  8
Engraving
 62
   7
 39
0.400
  6
CONTINUOUS
 10
2.04626
 20
58.96055
 30
 0
 11
1.98572
 21
58.81928
  0
LINE
  8
Engraving
 62
   7
 39
0.400
  6
CONTINUOUS
 10
1.98572
 20
58.81928
 30
 0
 11
1.94535
 21
58.67802
  0
LINE
  8
Engraving
 62
   7
 39
0.400
  6
CONTINUOUS
 10
1.94535
 20
58.67802
 30
 0
 11
1.94535
 21
58.43584
  0
LINE
  8
Engraving
 62
   7
 39
0.400
  6
CONTINUOUS
 10
2.77350
 20
43.85900
 30
 0
 11
2.77350
 21
46.42200
  0
LINE
  8
Engraving
 62
   7
 39
0.400
  6
CONTINUOUS
 10
2.77350
 20
46.42200
 30
 0
 11
2.67260
 21
46.42200
  0
LINE
  8
Engraving
 62
   7
 39
0.400
  6
CONTINUOUS
 10
2.67260
 20
46.42200
 30
 0
 11
1.84517
 21
44.62588
  0
LINE
  8
Engraving
 62
   7
 39
0.400
  6
CONTINUOUS
 10
1.84517
 20
44.62588
 30
 0
 11
3.15694
 21
44.62588
  0
LINE
  8
Engraving
 62
   7
 39
0.200
  6
CONTINUOUS
 10
13.21329
 20
4.13500
 30
 0
 11
12.56983
 21
2.93744
  0
LINE
  8
Engraving
 62
   7
 39
0.200
  6
CONTINUOUS
 10
12.56983
 20
2.93744
 30
 0
 11
11.92636
 21
4.13500
  0
LINE
  8
Engraving
 62
   7
 39
0.200
  6
CONTINUOUS
 10
12.56983
 20
2.93744
 30
 0
 11
12.56983
 21
1.86500
  0
LINE
  8
Engraving
 62
   7
 39
0.200
  6
CONTINUOUS
 10
13.66049
 20
2.66933
 30
 0
 11
13.66049
 21
2.24035
  0
LINE
  8
Engraving
 62
   7
 39
0.200
  6
CONTINUOUS
 10
13.66049
 20
2.24035
 30
 0
 11
13.69624
 21
2.07949
  0
LINE
  8
Engraving
 62
   7
 39
0.200
  6
CONTINUOUS
 10
13.69624
 20
2.07949
 30
 0
 11
13.78561
 21
1.95437
  0
LINE
  8
Engraving
 62
   7
 39
0.200
  6
CONTINUOUS
 10
13.78561
 20
1.95437
 30
 0
 11
13.94647
 21
1.86500
  0
LINE
  8
Engraving
 62
   7
 39
0.200
  6
CONTINUOUS
 10
13.94647
 20
1.86500
 30
 0
 11
14.07159
 21
1.84713
  0
LINE
  8
Engraving
 62
   7
 39
0.200
  6
CONTINUOUS
 10
14.07159
 20
1.84713
 30
 0
 11
14.23246
 21
1.84713
  0
LINE
  8
Engraving
 62
   7
 39
0.200
  6
CONTINUOUS
 10
14.23246
 20
1.84713
 30
 0
 11
14.37545
 21
1.88287
  0
LINE
  8
Engraving
 62
   7
 39
0.200
  6
CONTINUOUS
 10
14.37545
 20
1.88287
 30
 0
 11
14.48269
 21
1.97224
  0
LINE
  8
Engraving
 62
   7
 39
0.200
  6
CONTINUOUS
 10
14.48269
 20
1.97224
 30
 0
 11
14.57206
 21
2.11524
  0
LINE
  8
Engraving
 62
   7
 39
0.200
  6
CONTINUOUS
 10
14.57206
 20
2.11524
 30
 0
 11
14.60781
 21
2.24035
  0
LINE
  8
Engraving
 62
   7
 39
0.200
  6
CONTINUOUS
 10
14.60781
 20
2.24035
 30
 0
 11
14.60781
 21
3.06256
  0
LINE
  8
Engraving
 62
   7
 39
0.200
  6
CONTINUOUS
 10
14.60781
 20
3.06256
 30
 0
 11
14.55419
 21
3.25917
  0
LINE
  8
Engraving
 62
   7
 39
0.200
  6
CONTINUOUS
 10
14.55419
 20
3.25917
 30
 0
 11
14.46482
 21
3.36642
  0
LINE
  8
Engraving
 62
   7
 39
0.200
  6
CONTINUOUS
 10
14.46482
 20
3.36642
 30
 0
 11
14.33970
 21
3.45579
  0
LINE
  8
Engraving
 62
   7
 39
0.200
  6
CONTINUOUS
 10
14.33970
 20
3.45579
 30
 0
 11
14.19671
 21
3.47366
  0
LINE
  8
Engraving
 62
   7
 39
0.200
  6
CONTINUOUS
 10
14.19671
 20
3.47366
 30
 0
 11
14.07159
 21
3.47366
  0
LINE
  8
Engraving
 62
   7
 39
0.200
  6
CONTINUOUS
 10
14.07159
 20
3.47366
 30
 0
 11
13.89285
 21
3.43791
  0
LINE
  8
Engraving
 62
   7
 39
0.200
  6
CONTINUOUS
 10
13.89285
 20
3.43791
 30
 0
 11
13.76773
 21
3.34854
  0
LINE
  8
Engraving
 62
   7
 39
0.200
  6
CONTINUOUS
 10
13.76773
 20
3.34854
 30
 0
 11
13.69624
 21
3.24130
  0
LINE
  8
Engraving
 62
   7
 39
0.200
  6
CONTINUOUS
 10
13.69624
 20
3.24130
 30
 0
 11
13.66049
 21
3.06256
  0
LINE
  8
Engraving
 62
   7
 39
0.200
  6
CONTINUOUS
 10
13.66049
 20
3.06256
 30
 0
 11
13.66049
 21
2.66933
  0
LINE
  8
Engraving
 62
   7
 39
0.200
  6
CONTINUOUS
 10
15.05549
 20
1.86500
 30
 0
 11
15.05549
 21
4.13500
  0
LINE
  8
Engraving
 62
   7
 39
0.200
  6
CONTINUOUS
 10
15.05549
 20
4.13500
 30
 0
 11
15.21635
 21
4.13500
  0
LINE
  8
Engraving
 62
   7
 39
0.200
  6
CONTINUOUS
 10
15.21635
 20
4.13500
 30
 0
 11
15.87769
 21
1.86500
  0
LINE
  8
Engraving
 62
   7
 39
0.200
  6
CONTINUOUS
 10
15.87769
 20
1.86500
 30
 0
 11
16.52116
 21
4.13500
  0
LINE
  8
Engraving
 62
   7
 39
0.200
  6
CONTINUOUS
 10
16.52116
 20
4.13500
 30
 0
 11
16.68202
 21
4.13500
  0
LINE
  8
Engraving
 62
   7
 39
0.200
  6
CONTINUOUS
 10
16.68202
 20
4.13500
 30
 0
 11
16.68202
 21
1.86500
  0
LINE
  8
Engraving
 62
   7
 39
0.200
  6
CONTINUOUS
 10
17.12849
 20
2.66933
 30
 0
 11
17.12849
 21
2.24035
  0
LINE
  8
Engraving
 62
   7
 39
0.200
  6
CONTINUOUS
 10
17.12849
 20
2.24035
 30
 0
 11
17.16424
 21
2.07949
  0
LINE
  8
Engraving
 62
   7
 39
0.200
  6
CONTINUOUS
 10
17.16424
 20
2.07949
 30
 0
 11
17.25361
 21
1.95437
  0
LINE
  8
Engraving
 62
   7
 39
0.200
  6
CONTINUOUS
 10
17.25361
 20
1.95437
 30
 0
 11
17.41447
 21
1.86500
  0
LINE
  8
Engraving
 62
   7
 39
0.200
  6
CONTINUOUS
 10
17.41447
 20
1.86500
 30
 0
 11
17.53959
 21
1.84713
  0
LINE
  8
Engraving
 62
   7
 39
0.200
  6
CONTINUOUS
 10
17.53959
 20
1.84713
 30
 0
 11
17.70046
 21
1.84713
  0
LINE
  8
Engraving
 62
   7
 39
0.200
  6
CONTINUOUS
 10
17.70046
 20
1.84713
 30
 0
 11
17.84345
 21
1.88287
  0
LINE
  8
Engraving
 62
   7
 39
0.200
  6
CONTINUOUS
 10
17.84345
 20
1.88287
 30
 0
 11
17.95069
 21
1.97224
  0
LINE
  8
Engraving
 62
   7
 39
0.200
  6
CONTINUOUS
 10
17.95069
 20
1.97224
 30
 0
 11
18.04006
 21
2.11524
  0
LINE
  8
Engraving
 62
   7
 39
0.200
  6
CONTINUOUS
 10
18.04006
 20
2.11524
 30
 0
 11
18.07581
 21
2.24035
  0
LINE
  8
Engraving
 62
   7
 39
0.200
  6
CONTINUOUS
 10
18.07581
 20
2.24035
 30
 0
 11
18.07581
 21
3.06256
  0
LINE
  8
Engraving
 62
   7
 39
0.200
  6
CONTINUOUS
 10
18.07581
 20
3.06256
 30
 0
 11
18.02219
 21
3.25917
  0
LINE
  8
Engraving
 62
   7
 39
0.200
  6
CONTINUOUS
 10
18.02219
 20
3.25917
 30
 0
 11
17.93282
 21
3.36642
  0
LINE
  8
Engraving
 62
   7
 39
0.200
  6
CONTINUOUS
 10
17.93282
 20
3.36642
 30
 0
 11
17.80770
 21
3.45579
  0
LINE
  8
Engraving
 62
   7
 39
0.200
  6
CONTINUOUS
 10
17.80770
 20
3.45579
 30
 0
 11
17.66471
 21
3.47366
  0
LINE
  8
Engraving
 62
   7
 39
0.200
  6
CONTINUOUS
 10
17.66471
 20
3.47366
 30
 0
 11
17.53959
 21
3.47366
  0
LINE
  8
Engraving
 62
   7
 39
0.200
  6
CONTINUOUS
 10
17.53959
 20
3.47366
 30
 0
 11
17.36085
 21
3.43791
  0
LINE
  8
Engraving
 62
   7
 39
0.200
  6
CONTINUOUS
 10
17.36085
 20
3.43791
 30
 0
 11
17.23573
 21
3.34854
  0
LINE
  8
Engraving
 62
   7
 39
0.200
  6
CONTINUOUS
 10
17.23573
 20
3.34854
 30
 0
 11
17.16424
 21
3.24130
  0
LINE
  8
Engraving
 62
   7
 39
0.200
  6
CONTINUOUS
 10
17.16424
 20
3.24130
 30
 0
 11
17.12849
 21
3.06256
  0
LINE
  8
Engraving
 62
   7
 39
0.200
  6
CONTINUOUS
 10
17.12849
 20
3.06256
 30
 0
 11
17.12849
 21
2.66933
  0
CIRCLE
  8
Contour
 62
   7
 39
0.100
  6
CONTINUOUS
 10
7.50000
 20
125.50000
 30
 0
 40
1.50000
  0
CIRCLE
  8
Contour
 62
   7
 39
0.100
  6
CONTINUOUS
 10
7.50000
 20
3.00000
 30
 0
 40
1.50000
  0
CIRCLE
  8
Contour
 62
   7
 39
0.100
  6
CONTINUOUS
 10
10.95000
 20
95.31000
 30
 0
 40
3.00000
  0
CIRCLE
  8
Contour
 62
   7
 39
0.100
  6
CONTINUOUS
 10
10.95000
 20
33.06000
 30
 0
 40
3.00000
  0
CIRCLE
  8
Contour
 62
   7
 39
0.100
  6
CONTINUOUS
 10
10.95000
 20
19.10000
 30
 0
 40
3.00000
  0
CIRCLE
  8
Contour
 62
   7
 39
0.100
  6
CONTINUOUS
 10
9.68000
 20
83.24000
 30
 0
 40
3.75000
  0
CIRCLE
  8
Contour
 62
   7
 39
0.100
  6
CONTINUOUS
 10
9.68000
 20
70.54000
 30
 0
 40
3.75000
  0
CIRCLE
  8
Contour
 62
   7
 39
0.100
  6
CONTINUOUS
 10
9.68000
 20
57.84000
 30
 0
 40
3.75000
  0
CIRCLE
  8
Contour
 62
   7
 39
0.100
  6
CONTINUOUS
 10
9.68000
 20
45.14000
 30
 0
 40
3.75000
  0
CIRCLE
  8
Contour
 62
   7
 39
0.100
  6
CONTINUOUS
 10
17.30000
 20
83.24000
 30
 0
 40
1.75000
  0
CIRCLE
  8
Contour
 62
   7
 39
0.100
  6
CONTINUOUS
 10
17.30000
 20
70.54000
 30
 0
 40
1.75000
  0
CIRCLE
  8
Contour
 62
   7
 39
0.100
  6
CONTINUOUS
 10
17.30000
 20
57.84000
 30
 0
 40
1.75000
  0
CIRCLE
  8
Contour
 62
   7
 39
0.100
  6
CONTINUOUS
 10
17.30000
 20
45.14000
 30
 0
 40
1.75000
  0
ENDSEC
  0
EOF
